<svg width="10" height="11" viewBox="0 0 10 11" fill="none" xmlns="http://www.w3.org/2000/svg">
<path d="M9.39706 9.18542C9.56638 9.35473 9.65104 9.55933 9.65104 9.79919C9.65104 10.0108 9.57343 10.1943 9.41823 10.3495C9.26302 10.5047 9.0796 10.5823 8.86795 10.5823C8.64219 10.5823 8.4376 10.4835 8.25418 10.286L4.82552 6.37053L1.41803 10.286C1.2346 10.4835 1.03001 10.5823 0.804253 10.5823C0.592608 10.5823 0.402127 10.5047 0.23281 10.3495C0.0776034 10.1943 0 10.0038 0 9.77803C0 9.56638 0.0846582 9.36884 0.253975 9.18542L3.76729 5.22765L0.402127 1.39686C0.23281 1.19932 0.148152 1.00179 0.148152 0.804253C0.148152 0.578498 0.225755 0.388017 0.380962 0.23281C0.550279 0.0776034 0.733705 0 0.93124 0C1.157 0 1.36159 0.0987679 1.54501 0.296304L4.82552 4.06359L8.10603 0.296304C8.28945 0.0987679 8.49404 0 8.7198 0C8.93144 0 9.11487 0.0776034 9.27008 0.23281C9.42528 0.388017 9.50289 0.571443 9.50289 0.783089C9.50289 1.02295 9.41823 1.22754 9.24891 1.39686L5.88375 5.22765L9.39706 9.18542Z" fill="black"/>
</svg>
